<?xml version="1.0" encoding="utf-8"?>
<!-- Generator: Adobe Illustrator 16.0.0, SVG Export Plug-In . SVG Version: 6.00 Build 0)  -->
<!DOCTYPE svg PUBLIC "-//W3C//DTD SVG 1.1//EN" "http://www.w3.org/Graphics/SVG/1.1/DTD/svg11.dtd">
<svg version="1.1" id="Layer_2" xmlns="http://www.w3.org/2000/svg" xmlns:xlink="http://www.w3.org/1999/xlink" x="0px" y="0px"
	 width="1920px" height="512px" viewBox="0 0 1920 512" enable-background="new 0 0 1920 512" xml:space="preserve">
<g>
	<path fill="#161616" d="M376,85.084v9.25c-12.336,2-23.336,8.586-33,19.75c-7,8.336-17.418,27.918-31.25,58.75L195,431.835h-8.25
		L70.5,162.334c-14-32.5-23.375-51.582-28.125-57.25c-4.75-5.664-13.711-9.25-26.875-10.75v-9.25H178v9.25h-5.5
		c-14.668,0-24.668,1.836-30,5.5c-3.836,2.5-5.75,6.168-5.75,11c0,3,0.664,6.543,2,10.625c1.332,4.086,5.832,15.043,13.5,32.875
		l72.25,168.751l67-150.251c8-18.164,12.914-30.332,14.75-36.5c1.832-6.164,2.75-11.414,2.75-15.75c0-5-1.336-9.414-4-13.25
		c-2.668-3.832-6.586-6.75-11.75-8.75c-7.168-2.832-16.668-4.25-28.5-4.25v-9.25H376z"/>
	<path fill="#161616" d="M953.75,80.334c54-2,97.875,13.75,131.625,47.25S1136,203.002,1136,253.334
		c0,43.001-12.586,80.837-37.75,113.501c-33.336,43.336-80.418,65-141.25,65c-61,0-108.168-20.664-141.5-62
		c-26.336-32.664-39.5-71.414-39.5-116.251c0-50.332,17.125-92.289,51.375-125.875C861.625,94.127,903.75,78.334,953.75,80.334z
		 M956.75,96.334c-31,0-54.586,15.836-70.75,47.5c-13.168,26-19.75,63.336-19.75,112c0,57.837,10.164,100.587,30.5,128.251
		c14.164,19.336,34,29,59.5,29c17.164,0,31.5-4.164,43-12.5c14.664-10.664,26.082-27.707,34.25-51.125
		c8.164-23.414,12.25-53.957,12.25-91.625c0-44.833-4.168-78.376-12.5-100.626c-8.336-22.25-18.961-37.957-31.875-47.125
		C988.457,100.92,973.582,96.334,956.75,96.334z"/>
	<path fill="#161616" d="M1754.5,225.334l93.5,138.751c15.5,23,26.539,36.961,33.125,41.875c6.582,4.918,14.375,7.875,23.375,8.875
		v9.25h-165.25v-9.25c13.164-1,21.664-3,25.5-6c3.832-3,5.75-6.664,5.75-11c0-3-0.586-5.664-1.75-8c-2.336-5-8.168-14.332-17.5-28
		l-49.5-73.25l-51.75,63.25c-15.5,19.168-23.25,32.168-23.25,39c0,4.836,2,9.336,6,13.5c4,4.168,9.914,7.168,17.75,9
		c3.5,1,10.664,1.5,21.5,1.5v9.25h-130.25v-9.25c14.832-2.164,26.5-6.164,35-12c11.164-7.664,26.75-23.664,46.75-48l67.25-82
		l-86.25-126.751c-14.168-20.832-22.25-32.414-24.25-34.75c-4.5-5.5-8.918-9.414-13.25-11.75c-4.336-2.332-10.336-4.082-18-5.25
		v-9.25h168.25v9.25h-8.5c-9.668,0-16.418,1.543-20.25,4.625c-3.836,3.086-5.75,6.961-5.75,11.625c0,3.668,0.582,6.836,1.75,9.5
		l17.25,26l42,64l35.75-43.75c18.332-22.5,27.5-38.25,27.5-47.25c0-4.5-1.293-8.664-3.875-12.5c-2.586-3.832-6.293-6.832-11.125-9
		c-4.836-2.164-12.336-3.25-22.5-3.25v-9.25h124.75v9.25c-9.836,0.168-17.75,1.375-23.75,3.625s-12.418,6.461-19.25,12.625
		c-4.336,4-15.168,16.418-32.5,37.25L1754.5,225.334z"/>
</g>
</svg>
